    
<svg width="647.0" height="1000">
    <g transform="translate(0,900)">
    <g transform="scale(1,-1)">
        <path char="佯" portion="right" d="M129.0 765q36 -54 56 -56q12 -1 19 12q7 15 1 47q-3 16 -26 28q-57 27 -72 23q-6 -3 -6 -17q3 -12 28 -37zM360.0 811q-16 -33 -72 -116q-9 -19 9 -13q0 4 122 96q13 13 32 22q22 13 9 30 q-16 16 -45 29q-25 13 -39 8q-13 -3 -8 -16q6 -19 -8 -40zM227.0 306q0 -321 15 -351q1 -1 3 -4q6 -7 13 -5q18 12 21 70q7 73 5 148q-3 40 -3 149q91 10 307 11q21 0 26 9q6 13 -12 28q-54 40 -96 32q-85 -16 -225 -39q0 46 1 102q147 27 155 32q7 6 4 14q-6 10 -30 18 q-22 6 -127 -24q0 21 9 54q3 18 -12 28q-12 7 -21 12q183 36 189 41q10 7 5 17q-7 12 -37 20q-21 6 -137 -26q-102 -19 -158 -24q-37 -6 -12 -24q40 -21 92 -15q-1 0 0 -1q22 -51 24 -94q-57 -7 -118 -13q-31 -4 -10 -19q37 -18 98 -10q13 3 31 4v-100q-114 -13 -243 -30 q-22 -3 -5 -21q15 -15 34 -21q22 -6 40 0q81 22 174 32z"></path>
    </g>
    </g>
</svg>
