    
<svg width="353.0" height="1000">
    <g transform="translate(0,900)">
    <g transform="scale(1,-1)">
        <path char="佯" portion="left" d="M210 512q19 -63 20 -92q-1 -22 -1 -47q-1 -100 -28 -202q-15 -49 22 -97q1 -3 5 -6q19 -16 31 12q15 42 15 90q4 238 12 291q7 28 -3 39q-18 22 -32 36q-6 7 -12 11q40 54 86 124q27 48 50 70q10 12 6 27t-36 40q-30 19 -50 20q-21 -1 -12 -27q13 -31 2 -58 q-37 -91 -93 -175q-54 -81 -128 -170q-12 -12 -14 -18q-4 -13 12 -10q36 9 142 134z"></path>
    </g>
    </g>
</svg>
