<svg viewBox="0 0 1000 1000" xmlns="http://www.w3.org/2000/svg" char="吗" portion="right" component="马">
    <g transform="translate(0,900)">
    <g transform="scale(1,-1)">
        <path d="M701 420q19 21 39 214q10 55 46 90q18 19 0 33q-21 16 -76 38q-15 9 -73 -11q-16 0 -100 -26q-43 -13 -71 -18q-18 -1 -20 -7q-4 -6 15 -16q36 -16 58 -8q42 16 139 34q16 1 24 -1q16 -7 12 -59q-19 -190 -32 -230 q-6 -27 4 -39q-49 -6 -122 -21q-25 -4 -25 16q3 171 16 200q7 18 -1 30q-18 18 -45 29q-19 7 -28 -2q-7 -6 2 -18q21 -46 3 -234q-3 -18 -7 -36q-6 -22 10 -37q21 -15 43 -1q39 28 156 43q117 24 142 0q13 -13 -3 -57q-7 -75 -19 -154q-7 -61 -34 -100q-7 -12 -32 -10 q-40 13 -76 24q-16 4 -15 -3q0 -6 9 -14q64 -58 87 -98q9 -22 28 -11q69 36 81 115q19 106 32 223q7 40 27 72q13 18 1 31q-19 21 -58 43q-22 12 -52 -1q-40 -18 -79 -22q-4 0 -6 -1zM527 194q132 21 221 16q21 -1 26 7q6 12 -6 22q-28 22 -67 36q-13 4 -34 -5 q-255 -57 -386 -68q-13 -1 -13 -11t18 -22q15 -10 43 -18q10 -3 25 5q9 4 51 13q54 15 122 25z"></path>
    </g>
    </g>
</svg>
