    
<svg viewBox="0 0 406.5 1000" xmlns="http://www.w3.org/2000/svg">
    <g transform="translate(0,900)">
    <g transform="scale(1,-1)">
        <path char="她" portion="left" d="M341 458q-34 -7 -68 -16q21 82 40 165q9 45 26 69q12 21 5 33q-13 16 -58 43q-19 12 -36 3q-12 -7 -2 -22q31 -45 -19 -301q-60 -10 -123 -25q-19 -4 -49 -1q-12 -1 -14 -10q-3 -12 5 -20q19 -16 48 -35q9 -4 20 3q45 30 105 46q-31 -102 -41 -120q-9 -22 14 -38 q40 -16 77 -40q-7 -9 -14 -19q-27 -36 -75 -71q-12 -9 -27 -18q-16 -10 -31 -21q-13 -9 -1 -11q13 -1 47 11q49 19 88 53q31 24 52 51q27 -18 62 -46q18 -12 26 -12q9 1 13 12q4 12 -4 40q-12 34 -69 52q27 54 59 175q4 30 19 56q10 18 -6 27q-45 36 -70 28q-13 -4 -7 -19 q4 -10 8 -22zM332 428q4 1 10 3q-12 -126 -49 -202q-22 9 -51 18q-19 7 -20 24q21 66 40 132q33 13 70 25z"></path>
    </g>
    </g>
</svg>
