    
<svg width="1000" height="1000">
    <g transform="translate(0,900)">
    <g transform="scale(1,-1)">
        <path char="她" portion="whole" d="M341 458q-34 -7 -68 -16q21 82 40 165q9 45 26 69q12 21 5 33q-13 16 -58 43q-19 12 -36 3q-12 -7 -2 -22q31 -45 -19 -301q-60 -10 -123 -25q-19 -4 -49 -1q-12 -1 -14 -10q-3 -12 5 -20q19 -16 48 -35q9 -4 20 3q45 30 105 46q-31 -102 -41 -120q-9 -22 14 -38 q40 -16 77 -40q-7 -9 -14 -19q-27 -36 -75 -71q-12 -9 -27 -18q-16 -10 -31 -21q-13 -9 -1 -11q13 -1 47 11q49 19 88 53q31 24 52 51q27 -18 62 -46q18 -12 26 -12q9 1 13 12q4 12 -4 40q-12 34 -69 52q27 54 59 175q4 30 19 56q10 18 -6 27q-45 36 -70 28q-13 -4 -7 -19 q4 -10 8 -22zM332 428q4 1 10 3q-12 -126 -49 -202q-22 9 -51 18q-19 7 -20 24q21 66 40 132q33 13 70 25zM483 314q-1 -145 11 -181q10 -34 36 -57q78 -72 285 -53q93 10 128 33q31 16 19 50q-19 55 -30 150q-3 16 -10 22q-9 6 -13 -16q-15 -118 -31 -139q-10 -22 -49 -31 q-52 -10 -125 -10q-84 1 -119 17q-33 16 -41 37q-25 69 -11 210q33 21 88 51q-19 -129 -10 -164q4 -13 15 -7q18 15 33 127q4 37 9 71q42 25 96 55q16 9 23 -2q9 -13 -30 -161q-7 -37 -32 -26q-16 7 -31 14q-13 4 -12 -4q3 -10 50 -75q21 -28 40 -7q39 43 51 106 q12 54 22 109q7 36 37 67q12 16 -5 28q-19 12 -70 19q-19 4 -32 -10q-30 -31 -102 -72q24 210 37 257q12 19 -1 33q-15 16 -44 33q-22 10 -47 2q-13 -7 1 -25q19 -45 22 -93q1 -97 -14 -228q-1 -1 -1 -5q-75 -39 -85 -44q4 28 13 48q13 31 -7 50q-52 40 -69 35 q-16 -6 -8 -24q21 -39 14 -136q-46 -19 -76 -32q-13 -3 -14 -13q0 -7 43 -17q25 -6 46 8z"></path>
    </g>
    </g>
</svg>
