    
<svg viewBox="0 0 1000 1000" xmlns="http://www.w3.org/2000/svg">
    <g transform="translate(0,900)">
    <g transform="scale(1,-1)">
        <path char="她" portion="right" d="M483 314q-1 -145 11 -181q10 -34 36 -57q78 -72 285 -53q93 10 128 33q31 16 19 50q-19 55 -30 150q-3 16 -10 22q-9 6 -13 -16q-15 -118 -31 -139q-10 -22 -49 -31 q-52 -10 -125 -10q-84 1 -119 17q-33 16 -41 37q-25 69 -11 210q33 21 88 51q-19 -129 -10 -164q4 -13 15 -7q18 15 33 127q4 37 9 71q42 25 96 55q16 9 23 -2q9 -13 -30 -161q-7 -37 -32 -26q-16 7 -31 14q-13 4 -12 -4q3 -10 50 -75q21 -28 40 -7q39 43 51 106 q12 54 22 109q7 36 37 67q12 16 -5 28q-19 12 -70 19q-19 4 -32 -10q-30 -31 -102 -72q24 210 37 257q12 19 -1 33q-15 16 -44 33q-22 10 -47 2q-13 -7 1 -25q19 -45 22 -93q1 -97 -14 -228q-1 -1 -1 -5q-75 -39 -85 -44q4 28 13 48q13 31 -7 50q-52 40 -69 35 q-16 -6 -8 -24q21 -39 14 -136q-46 -19 -76 -32q-13 -3 -14 -13q0 -7 43 -17q25 -6 46 8z"></path>
    </g>
    </g>
</svg>
