    
<svg viewBox="0 0 1000 1000" xmlns="http://www.w3.org/2000/svg">
    <g transform="translate(0,900)">
    <g transform="scale(1,-1)">
        <path char="妈" portion="right" d="M723 412q24 25 44 205q12 55 47 89q18 19 0 33q-19 16 -74 38q-15 7 -75 -11q-21 0 -104 -25q-46 -13 -75 -18q-16 -1 -19 -7q-4 -4 14 -16q34 -16 55 -7q45 16 149 35q18 1 25 -1q16 -7 11 -56q-18 -181 -30 -218q-9 -27 7 -44q-46 -6 -113 -20q-24 -4 -24 16 q3 162 19 200q6 16 -1 27q-16 16 -40 27q-16 7 -25 -1q-7 -4 1 -16q18 -39 -1 -230q-4 -16 -8 -34q-6 -19 8 -35q19 -16 38 -4q19 13 58 21q81 19 166 25q31 1 43 -11q10 -12 -3 -53q-9 -69 -23 -142q-9 -55 -35 -92q-10 -12 -34 -9q-34 9 -62 16q-16 4 -15 -3q0 -6 9 -13 q54 -51 73 -86q9 -19 27 -10q64 36 78 106q21 97 37 206q7 36 27 66q13 16 1 28q-16 21 -52 42q-21 12 -49 0q-36 -13 -69 -17q-4 0 -6 -1zM425 224q-13 -1 -16 -10q-4 -10 12 -22q42 -30 84 -14q120 40 247 60q18 1 18 10q1 13 -18 22q-28 13 -51 7q-192 -43 -276 -53z"></path>
    </g>
    </g>
</svg>
