<svg viewBox="0 0 424.5 1000" xmlns="http://www.w3.org/2000/svg" char="妈" portion="left" component="女">
    <g transform="translate(0,900)">
    <g transform="scale(1,-1)">
        <path d="M284 192q-3 -3 -5 -7q-34 -45 -135 -117q-13 -10 -1 -12q72 -7 176 105q34 -28 76 -74q16 -16 25 -17q9 0 15 11q7 10 3 41q-6 34 -89 82q42 87 55 138q0 42 20 95q4 18 14 34q10 18 -6 27q-48 36 -74 28q-13 -4 -7 -19q9 -16 10 -35q-37 -7 -75 -16q22 90 42 180 q7 48 26 73q12 22 4 35q-13 18 -61 44q-21 12 -37 3q-13 -7 -3 -24q33 -48 -16 -320q-61 -10 -125 -23q-21 -4 -53 -1q-13 0 -16 -9q-3 -13 5 -21q19 -18 49 -39q10 -4 22 3q60 36 110 45q-3 -10 -5 -24q-10 -52 -33 -91q-10 -22 10 -39q43 -25 79 -56zM360 416 q-3 -90 -53 -188q-22 13 -50 28q-21 10 -18 32q19 64 37 128q40 13 85 26q0 -12 -1 -26z"></path>
    </g>
    </g>
</svg>
