    
<svg viewBox="0 0 1000 1000" xmlns="http://www.w3.org/2000/svg">
    <g transform="translate(0,900)">
    <g transform="scale(1,-1)">
        <path char="妈" portion="whole" d="M723 412q24 25 44 205q12 55 47 89q18 19 0 33q-19 16 -74 38q-15 7 -75 -11q-21 0 -104 -25q-46 -13 -75 -18q-16 -1 -19 -7q-4 -4 14 -16q34 -16 55 -7q45 16 149 35q18 1 25 -1q16 -7 11 -56q-18 -181 -30 -218q-9 -27 7 -44q-46 -6 -113 -20q-24 -4 -24 16 q3 162 19 200q6 16 -1 27q-16 16 -40 27q-16 7 -25 -1q-7 -4 1 -16q18 -39 -1 -230q-4 -16 -8 -34q-6 -19 8 -35q19 -16 38 -4q19 13 58 21q81 19 166 25q31 1 43 -11q10 -12 -3 -53q-9 -69 -23 -142q-9 -55 -35 -92q-10 -12 -34 -9q-34 9 -62 16q-16 4 -15 -3q0 -6 9 -13 q54 -51 73 -86q9 -19 27 -10q64 36 78 106q21 97 37 206q7 36 27 66q13 16 1 28q-16 21 -52 42q-21 12 -49 0q-36 -13 -69 -17q-4 0 -6 -1zM425 224q-13 -1 -16 -10q-4 -10 12 -22q42 -30 84 -14q120 40 247 60q18 1 18 10q1 13 -18 22q-28 13 -51 7q-192 -43 -276 -53z M284 192q-3 -3 -5 -7q-34 -45 -135 -117q-13 -10 -1 -12q72 -7 176 105q34 -28 76 -74q16 -16 25 -17q9 0 15 11q7 10 3 41q-6 34 -89 82q42 87 55 138q0 42 20 95q4 18 14 34q10 18 -6 27q-48 36 -74 28q-13 -4 -7 -19q9 -16 10 -35q-37 -7 -75 -16q22 90 42 180 q7 48 26 73q12 22 4 35q-13 18 -61 44q-21 12 -37 3q-13 -7 -3 -24q33 -48 -16 -320q-61 -10 -125 -23q-21 -4 -53 -1q-13 0 -16 -9q-3 -13 5 -21q19 -18 49 -39q10 -4 22 3q60 36 110 45q-3 -10 -5 -24q-10 -52 -33 -91q-10 -22 10 -39q43 -25 79 -56zM360 416 q-3 -90 -53 -188q-22 13 -50 28q-21 10 -18 32q19 64 37 128q40 13 85 26q0 -12 -1 -26z"></path>
    </g>
    </g>
</svg>
