<svg viewBox="0 0 579.0 1000" xmlns="http://www.w3.org/2000/svg" char="妹" portion="right" component="未">
    <g transform="translate(0,900)">
    <g transform="scale(1,-1)">
        <path d="M222.0 376q64 -103 147 -213q18 -19 47 -19q100 1 132 6q10 1 11 7q1 4 -12 13q-142 66 -218 138q-51 48 -107 107q0 1 1 3q15 3 204 22q18 1 21 9q4 10 -11 22q-58 36 -96 17q-46 -13 -118 -31q0 52 1 109 q141 39 143 41q9 9 4 17q-7 12 -38 18q-31 4 -108 -26q1 88 19 151q10 16 6 31q-7 10 -67 47q-25 18 -47 1q-6 -6 1 -22q36 -52 37 -104q1 -55 2 -119q-49 -10 -101 -19q-37 -7 -9 -23q45 -24 103 -6q3 1 8 1q-1 -52 -2 -107q-76 -16 -162 -34q-19 -4 -4 -18q27 -21 83 -6 q27 9 60 15q-40 -90 -158 -239q-6 -10 5 -11q6 -1 15 7q94 75 159 182q0 -159 -23 -253q-18 -27 -5 -66q7 -27 19 -53q7 -19 16 -22q7 -7 14 2q9 4 20 27q10 27 9 61q-1 43 -1 337z"></path>
    </g>
    </g>
</svg>
