    
<svg width="1000" height="1000">
    <g transform="translate(0,900)">
    <g transform="scale(1,-1)">
        <path char="妹" portion="whole" d="M263 210q-57 -63 -89 -88q-7 -4 -85 -54q-13 -9 -2 -12q82 -7 200 108q4 6 10 12q28 -28 65 -71q15 -16 24 -18q9 -1 16 10q7 10 5 41q-6 36 -80 84q27 45 76 193q7 34 24 62q10 18 -5 28q-45 40 -71 32q-13 -3 -9 -18q10 -24 8 -50q-49 -7 -100 -17q19 88 37 177 q7 48 25 73q10 22 3 35q-15 18 -63 43q-21 10 -37 1q-12 -7 -1 -23q37 -52 -8 -314q-49 -6 -100 -14q-21 -4 -54 1q-13 0 -15 -9q-4 -12 4 -21q19 -18 48 -40q9 -4 21 2q43 24 88 35q-9 -46 -28 -84q-10 -19 22 -45q37 -27 71 -59zM345 422q-10 -84 -58 -174q-25 16 -55 34 q-21 13 -17 35q13 46 25 93q52 15 107 29q-1 -7 -2 -17zM643 376q64 -103 147 -213q18 -19 47 -19q100 1 132 6q10 1 11 7q1 4 -12 13q-142 66 -218 138q-51 48 -107 107q0 1 1 3q15 3 204 22q18 1 21 9q4 10 -11 22q-58 36 -96 17q-46 -13 -118 -31q0 52 1 109 q141 39 143 41q9 9 4 17q-7 12 -38 18q-31 4 -108 -26q1 88 19 151q10 16 6 31q-7 10 -67 47q-25 18 -47 1q-6 -6 1 -22q36 -52 37 -104q1 -55 2 -119q-49 -10 -101 -19q-37 -7 -9 -23q45 -24 103 -6q3 1 8 1q-1 -52 -2 -107q-76 -16 -162 -34q-19 -4 -4 -18q27 -21 83 -6 q27 9 60 15q-40 -90 -158 -239q-6 -10 5 -11q6 -1 15 7q94 75 159 182q0 -159 -23 -253q-18 -27 -5 -66q7 -27 19 -53q7 -19 16 -22q7 -7 14 2q9 4 20 27q10 27 9 61q-1 43 -1 337z"></path>
    </g>
    </g>
</svg>
