<svg viewBox="0 0 421.0 1000" xmlns="http://www.w3.org/2000/svg" char="妹" portion="left" component="女">
    <g transform="translate(0,900)">
    <g transform="scale(1,-1)">
        <path d="M263 210q-57 -63 -89 -88q-7 -4 -85 -54q-13 -9 -2 -12q82 -7 200 108q4 6 10 12q28 -28 65 -71q15 -16 24 -18q9 -1 16 10q7 10 5 41q-6 36 -80 84q27 45 76 193q7 34 24 62q10 18 -5 28q-45 40 -71 32q-13 -3 -9 -18q10 -24 8 -50q-49 -7 -100 -17q19 88 37 177 q7 48 25 73q10 22 3 35q-15 18 -63 43q-21 10 -37 1q-12 -7 -1 -23q37 -52 -8 -314q-49 -6 -100 -14q-21 -4 -54 1q-13 0 -15 -9q-4 -12 4 -21q19 -18 48 -40q9 -4 21 2q43 24 88 35q-9 -46 -28 -84q-10 -19 22 -45q37 -27 71 -59zM345 422q-10 -84 -58 -174q-25 16 -55 34 q-21 13 -17 35q13 46 25 93q52 15 107 29q-1 -7 -2 -17z"></path>
    </g>
    </g>
</svg>
