    
<svg viewBox="0 0 1000 1000" xmlns="http://www.w3.org/2000/svg">
    <g transform="translate(0,900)">
    <g transform="scale(1,-1)">
        <path char="å§" portion="whole" d="M388 486q-46 -9 -97 -20q21 78 40 156q10 46 27 69q12 21 5 33q-13 18 -57 44q-19 12 -36 4q-12 -7 -2 -23q27 -42 -21 -291q-60 -9 -123 -21q-22 -4 -56 0q-13 0 -16 -9q-4 -13 4 -22q21 -19 51 -41q10 -4 23 3q33 18 106 43q-16 -73 -40 -112q-9 -22 12 -39 q52 -24 95 -57q-42 -54 -151 -124q-13 -7 -1 -11q79 -7 186 105l3 3q25 -19 55 -45q16 -13 25 -13t14 11q6 10 -2 40q-9 31 -61 55q37 57 54 128q21 90 38 120q10 16 -5 26q-45 36 -69 30q-13 -4 -8 -18q4 -10 7 -24zM384 455q1 1 5 1q-13 -133 -60 -213q-31 13 -72 30 q-19 7 -19 26q21 61 40 124q52 16 106 32zM533 101q-60 -4 -124 -11q-21 -1 -6 -19q13 -15 32 -20q21 -7 37 -2q138 33 451 33q16 0 34 -2q19 0 25 8q6 12 -10 26q-55 45 -125 27q-22 -3 -46 -8q-1 241 10 403q3 40 21 66q13 16 -2 35q-10 12 -64 41q-18 12 -64 -11 q-84 -28 -133 -37q-18 13 -34 21q-13 4 -23 -1q-9 -4 -5 -16q9 -19 17 -33q9 -25 9 -65q3 -46 0 -435zM670 116q-43 -4 -89 -10q1 88 2 166q67 15 120 22q24 4 14 18q-12 15 -38 18q-34 4 -96 -23q1 64 2 122q61 13 107 20q24 6 14 19q-13 15 -40 17q-49 3 -81 -21 q1 39 2 75q1 52 4 56q7 1 19 6q123 36 132 28q12 -22 2 -504q-36 -4 -74 -9z"></path>
    </g>
    </g>
</svg>
