    
<svg width="1000" height="1000">
    <g transform="translate(0,900)">
    <g transform="scale(1,-1)">
        <path char="å§" portion="left" d="M388 486q-46 -9 -97 -20q21 78 40 156q10 46 27 69q12 21 5 33q-13 18 -57 44q-19 12 -36 4q-12 -7 -2 -23q27 -42 -21 -291q-60 -9 -123 -21q-22 -4 -56 0q-13 0 -16 -9q-4 -13 4 -22q21 -19 51 -41q10 -4 23 3q33 18 106 43q-16 -73 -40 -112q-9 -22 12 -39 q52 -24 95 -57q-42 -54 -151 -124q-13 -7 -1 -11q79 -7 186 105l3 3q25 -19 55 -45q16 -13 25 -13t14 11q6 10 -2 40q-9 31 -61 55q37 57 54 128q21 90 38 120q10 16 -5 26q-45 36 -69 30q-13 -4 -8 -18q4 -10 7 -24zM384 455q1 1 5 1q-13 -133 -60 -213q-31 13 -72 30 q-19 7 -19 26q21 61 40 124q52 16 106 32z"></path>
    </g>
    </g>
</svg>
