    
<svg width="1000" height="1000">
    <g transform="translate(0,900)">
    <g transform="scale(1,-1)">
        <path char="å§" portion="right" d="M533 101q-60 -4 -124 -11q-21 -1 -6 -19q13 -15 32 -20q21 -7 37 -2q138 33 451 33q16 0 34 -2q19 0 25 8q6 12 -10 26q-55 45 -125 27q-22 -3 -46 -8q-1 241 10 403q3 40 21 66q13 16 -2 35q-10 12 -64 41q-18 12 -64 -11 q-84 -28 -133 -37q-18 13 -34 21q-13 4 -23 -1q-9 -4 -5 -16q9 -19 17 -33q9 -25 9 -65q3 -46 0 -435zM670 116q-43 -4 -89 -10q1 88 2 166q67 15 120 22q24 4 14 18q-12 15 -38 18q-34 4 -96 -23q1 64 2 122q61 13 107 20q24 6 14 19q-13 15 -40 17q-49 3 -81 -21 q1 39 2 75q1 52 4 56q7 1 19 6q123 36 132 28q12 -22 2 -504q-36 -4 -74 -9z"></path>
    </g>
    </g>
</svg>
