    
<svg viewBox="0 0 1000 1000" xmlns="http://www.w3.org/2000/svg">
    <g transform="translate(0,900)">
    <g transform="scale(1,-1)">
        <path char="情" portion="right" d="M596 506q-117 -16 -248 -36q-21 -3 -5 -19q13 -13 31 -18q21 -4 36 0q213 63 535 64h3q19 0 24 9q4 10 -11 24q-52 36 -88 28q-85 -21 -236 -45q-1 0 -1 -1 q1 40 5 77q55 13 105 21q25 4 15 18q-12 15 -38 19q-30 3 -79 -13q1 28 4 56q144 30 151 36q7 7 4 15q-7 10 -33 18q-28 6 -55 -5q-33 -10 -65 -20q0 25 16 90q3 10 -16 25q-34 18 -58 22q-16 3 -24 -5q-7 -7 1 -22q21 -30 22 -51q1 -34 3 -72q-55 -9 -113 -15 q-34 -6 -10 -21q36 -24 100 -8q10 3 25 3v-61q-54 -15 -101 -29q-18 -4 5 -19q12 -9 37 -3q28 7 59 12v-74zM531 158h10q73 9 129 14q22 3 15 16q-10 15 -36 20q-30 6 -117 -23q3 40 6 71q72 9 125 17q22 4 14 16q-10 13 -34 18q-33 4 -103 -23q4 52 8 70v4q7 3 19 6 q115 24 133 16q12 -6 11 -34q13 -166 3 -296q-1 -25 -17 -30q-9 -3 -55 12q-12 4 -12 -3q0 -9 15 -20q31 -33 55 -65q13 -16 28 -17q16 3 37 50q25 46 21 95q-7 115 -15 222q-4 42 14 76q12 15 -2 29q-18 16 -57 30q-21 10 -39 -2q-16 -7 -47 -17q-64 -16 -100 -24 q-22 22 -53 20q-13 -4 -8 -15q48 -109 -10 -297q-21 -51 -18 -61q1 -30 17 -47q6 -13 16 -8q33 22 47 180z"></path>
    </g>
    </g>
</svg>
