    
<svg viewBox="0 0 1000 1000" xmlns="http://www.w3.org/2000/svg">
    <g transform="translate(0,900)">
    <g transform="scale(1,-1)">
        <path char="情" portion="left" d="M143 553q-21 -66 -53 -126q-18 -36 2 -67q9 -16 29 -3q21 18 33 50q19 49 19 91q3 33 -6 57q-6 7 -12 9q-7 -1 -12 -11zM295 609q90 -66 96 -68h3q7 1 11 11q4 12 -5 35q-9 27 -95 48q-6 1 -9 0q4 76 21 128q10 16 7 29q-7 10 -62 45q-24 18 -45 3q-4 -6 1 -21 q30 -49 32 -127q0 -418 -36 -558q-12 -12 -9 -52q0 -6 3 -12q15 -60 30 -69q6 -7 14 2q27 18 29 81q-1 51 14 518v7z"></path>
    </g>
    </g>
</svg>
