    
<svg viewBox="0 0 365.5 1000" xmlns="http://www.w3.org/2000/svg">
    <g transform="translate(0,900)">
    <g transform="scale(1,-1)">
        <path char="晴" portion="left" d="M163 184q6 0 13 2q28 6 90 10q12 -19 23 -38q16 -25 24 -22q13 1 28 37q16 37 12 88q-15 351 12 399q12 19 3 30q-7 10 -59 27q-25 10 -42 -1q-55 -25 -103 -36q-12 12 -35 20q-10 4 -21 1q-7 -4 -1 -17q19 -81 21 -91q-1 -1 0 -6q12 -216 -20 -339q-12 -55 22 -99 q10 -13 21 -1q12 16 12 36zM253 234q-16 7 -46 -1q-22 -7 -41 -12q1 22 1 50q1 90 2 157q52 7 94 11q22 4 14 17q-10 15 -36 19q-24 3 -65 -10q-4 -1 -6 -3q3 162 5 177q1 7 1 13q99 24 107 21q1 0 4 -3q15 -13 13 -70q0 -229 -12 -355q3 -25 -18 -21h-1q-7 4 -16 10z"></path>
    </g>
    </g>
</svg>
