<svg viewBox="0 0 634.5 1000" xmlns="http://www.w3.org/2000/svg" char="晴" portion="right" component="青">
    <g transform="translate(0,900)">
    <g transform="scale(1,-1)">
        <path d="M234.5 498q-109 -16 -229 -36q-19 -3 -4 -19q13 -13 31 -17q21 -4 36 0q213 66 504 67h3q19 0 23 9q4 12 -11 24q-54 36 -88 26q-81 -19 -222 -46q-3 0 -3 -1q1 40 5 77q30 9 98 19q9 -1 15 10q1 9 -18 17q-30 15 -93 -8q1 40 5 79q144 36 147 39q7 7 4 15q-7 10 -33 17 q-25 6 -115 -26q6 43 15 76q3 10 -16 25q-34 18 -58 22q-16 3 -24 -5q-7 -7 1 -22q21 -30 22 -50q1 -28 3 -61q-52 -10 -114 -19q-34 -6 -9 -21q39 -21 100 -6q10 3 25 5v-80q-39 -6 -94 -17q-22 -4 -4 -17q27 -18 53 -12q19 6 45 10v-74zM160.5 146h7q73 9 129 14q22 3 15 16 q-10 15 -36 20q-33 6 -113 -22q3 45 7 78q66 9 113 17q22 4 13 16q-10 13 -34 17q-40 3 -90 -22q4 51 8 68v8q6 3 127 27q16 3 25 -7q7 -6 8 -29q12 -178 8 -286q-1 -25 -9 -36q-4 -6 -22 -1q-19 3 -39 6q-19 7 -19 -3q46 -46 70 -80q13 -19 28 -24q10 -4 18 5q42 54 41 103 q-31 285 -6 334q12 19 0 30q-22 19 -58 34q-19 7 -33 1q-63 -33 -155 -44q-28 16 -47 16q-13 -4 -9 -16q42 -105 -8 -284q-34 -72 -2 -116q7 -13 17 -8q34 19 44 136z"></path>
    </g>
    </g>
</svg>
