<svg viewBox="0 0 404.5 1000" xmlns="http://www.w3.org/2000/svg" char="样" portion="left" component="木">
    <g transform="translate(0,900)">
    <g transform="scale(1,-1)">
        <path d="M324 418q76 -76 84 -79h3q9 -1 14 10q4 12 0 36q-3 19 -31 37q-60 28 -69 28q0 40 2 85q81 30 82 30q7 7 3 16q-7 10 -37 16q-25 4 -46 -6q1 93 20 155q9 15 6 28q-7 10 -61 43q-22 16 -43 2q-4 -4 1 -20q33 -49 33 -98q0 -60 1 -128q-109 -36 -180 -48q-34 -9 -8 -23 q46 -21 95 -4q37 10 78 21q-52 -147 -221 -377q-6 -10 6 -11q6 -1 16 8q129 115 210 280q-4 -82 -5 -169q-4 -78 -26 -149q-12 -43 14 -99q6 -18 14 -21q6 -7 13 2q7 4 18 24q10 25 9 55q-1 42 5 356z"></path>
    </g>
    </g>
</svg>
