    
<svg width="595.5" height="1000">
    <g transform="translate(0,900)">
    <g transform="scale(1,-1)">
        <path char="Таи" portion="right" d="M100.5 717q21 -22 43 -47q12 -13 26 -13q10 0 15 12q4 13 -1 41 q-7 27 -84 51q-13 4 -20 2q-4 -4 -4 -15q1 -10 25 -31zM319.5 787q-24 -45 -74 -114q-4 -7 1 -14q7 -1 15 4q88 79 132 110q16 7 12 17q-7 15 -28 32q-21 16 -43 16q-15 -1 -12 -21q4 -13 -3 -30zM201.5 -31q6 -25 12 -34q6 -7 13 -5q18 12 21 67q4 48 5 261q93 15 250 15 q21 1 25 10q6 13 -12 26q-60 42 -121 22q-58 -12 -141 -29q0 46 2 102q30 9 112 19q10 -1 18 12q1 10 -21 20q-33 18 -105 -5q-1 0 -3 -1q3 34 11 62q3 18 -11 27q-13 10 -24 15q160 39 166 44q9 7 4 16q-7 10 -35 17q-27 6 -116 -26q-117 -27 -160 -32q-34 -7 -9 -22 q39 -21 96 -9q22 -51 24 -106q-57 -9 -116 -20q-27 -4 -5 -20q28 -21 70 -13q22 6 51 11q0 -46 -1 -100q-99 -16 -210 -34q-22 -3 -5 -20q31 -27 82 -15q60 18 132 27q-6 -214 1 -282z"></path>
    </g>
    </g>
</svg>
