<svg viewBox="0 0 661.0 1000" xmlns="http://www.w3.org/2000/svg" char="江" portion="right" component="工">
    <g transform="translate(0,900)">
    <g transform="scale(1,-1)">
        <path d="M248.0 228q-121 -13 -261 -28q-22 -1 -6 -21q33 -33 76 -24q171 40 512 41q19 0 39 -1q22 -1 27 9q7 13 -11 28q-58 45 -99 36q-85 -16 -230 -35q27 237 41 268q13 19 0 34 q-24 21 -45 32q75 18 154 33q52 13 59 20q10 9 5 19q-9 13 -42 21q-28 6 -140 -31q-102 -28 -203 -39q-42 -7 -12 -26q54 -30 127 -7h2q0 -3 2 -7q10 -18 12 -88q-4 -108 -7 -234z"></path>
    </g>
    </g>
</svg>
