<svg viewBox="0 0 339.0 1000" xmlns="http://www.w3.org/2000/svg" char="江" portion="left" component="氵">
    <g transform="translate(0,900)">
    <g transform="scale(1,-1)">
        <path char="江" portion="left" d="M260 716q22 -25 45 -55q13 -16 32 -18q12 0 19 14q7 16 2 51q-4 21 -34 38q-75 33 -88 29q-6 -4 -6 -18q3 -13 30 -41zM165 519q39 -58 69 -74q16 -6 28 8q9 13 8 33q-7 45 -66 67q-36 15 -50 12q-7 -1 -5 -15q0 -13 16 -31zM150 174q-13 -1 -12 -20q7 -79 41 -101 q7 -7 18 -6q7 1 11 26q12 48 150 323q9 15 8 22q1 10 -9 4q-21 -12 -158 -204q-16 -22 -49 -44z"></path>
    </g>
    </g>
</svg>
