    
<svg viewBox="0 0 1000 1000" xmlns="http://www.w3.org/2000/svg">
    <g transform="translate(0,900)">
    <g transform="scale(1,-1)">
        <path char="池" portion="left" d="M229 655q22 -22 48 -50q15 -16 33 -16q12 1 18 16q7 16 -3 51q-9 30 -100 54q-18 4 -25 1q-6 -4 -5 -19q4 -13 34 -37zM134 465q46 -60 82 -78q16 -4 27 10q7 13 5 31q-10 45 -99 78q-16 6 -27 3q-7 -1 -5 -15q1 -13 17 -29zM148 131q-12 -4 -10 -21q12 -73 45 -95 q7 -7 17 -5q7 1 10 26q6 39 94 256q7 16 7 22q-1 10 -10 4q-15 -9 -117 -155q-12 -16 -36 -32z"></path>
    </g>
    </g>
</svg>
