    
<svg viewBox="0 0 1000 1000" xmlns="http://www.w3.org/2000/svg">
    <g transform="translate(0,900)">
    <g transform="scale(1,-1)">
        <path char="池" portion="right" d="M386 354q4 -123 20 -166q10 -40 46 -72q111 -90 346 -56q33 7 68 17q60 21 116 68q19 13 9 39q-12 25 -24 104q1 16 -6 22q-6 4 -12 -14q-36 -82 -56 -106q-19 -30 -84 -49 q-69 -19 -153 -16q-73 1 -132 27q-54 25 -70 59q-28 51 -24 169q37 22 108 59q-4 -67 -9 -119q0 -33 8 -55q7 -13 17 -7q19 21 30 148q1 31 4 59q52 28 120 63q19 7 25 -4q6 -9 -27 -149q-9 -39 -35 -27q-19 10 -41 20q-15 4 -12 -5q4 -12 61 -83q21 -28 41 -7q48 52 73 203 q10 37 40 71q13 18 -4 30q-19 12 -73 21q-21 4 -35 -11q-30 -28 -130 -83q13 199 25 243q10 22 -3 36q-18 16 -49 32q-24 10 -50 0q-13 -9 2 -27q24 -48 27 -90q4 -91 -2 -219q-75 -33 -109 -50q3 46 9 96q4 19 -9 29q-15 13 -39 20q-13 4 -22 -2q-7 -4 0 -22q16 -40 15 -78 q-1 -33 -1 -63q-49 -19 -81 -31q-13 -3 -14 -13q-1 -7 44 -19q28 -9 51 7q0 1 1 1z"></path>
    </g>
    </g>
</svg>
