    
<svg width="1000" height="1000">
    <g transform="translate(0,900)">
    <g transform="scale(1,-1)">
        <path char="汤" portion="left" d="M276 717q27 -25 55 -56q15 -15 32 -15q12 0 17 15q6 16 -2 49q-6 21 -38 37q-73 31 -92 24q-6 -4 -4 -18q3 -13 32 -36zM183 520q45 -57 80 -74q16 -4 27 11q7 13 6 33q-13 48 -96 72l-1 1q-19 6 -29 2q-7 -1 -5 -15q1 -13 18 -30zM168 142q-13 -3 -10 -21q12 -72 49 -93 q7 -7 18 -4q7 1 8 27q7 51 116 329q7 16 6 22q-1 10 -10 3q-10 -7 -22 -24q-58 -102 -111 -190q-13 -24 -44 -49z"></path>
    </g>
    </g>
</svg>
