    
<svg viewBox="0 0 1000 1000" xmlns="http://www.w3.org/2000/svg">
    <g transform="translate(0,900)">
    <g transform="scale(1,-1)">
        <path char="汤" portion="whole" d="M276 717q27 -25 55 -56q15 -15 32 -15q12 0 17 15q6 16 -2 49q-6 21 -38 37q-73 31 -92 24q-6 -4 -4 -18q3 -13 32 -36zM183 520q45 -57 80 -74q16 -4 27 11q7 13 6 33q-13 48 -96 72l-1 1q-19 6 -29 2q-7 -1 -5 -15q1 -13 18 -30zM168 142q-13 -3 -10 -21q12 -72 49 -93 q7 -7 18 -4q7 1 8 27q7 51 116 329q7 16 6 22q-1 10 -10 3q-10 -7 -22 -24q-58 -102 -111 -190q-13 -24 -44 -49zM731 84q-13 -19 -27 -16q-31 12 -77 29q-15 4 -16 1q0 -4 16 -20q39 -37 62 -83q10 -16 19 -19q7 -1 26 12q52 45 89 117q37 84 74 315q4 25 18 36q12 10 0 26 q-55 49 -116 29q-12 -1 -24 -4q-135 -30 -238 -41q-6 -4 -9 1q1 22 122 156q61 64 86 70q16 7 17 14q1 9 -5 14q-22 24 -51 36q-19 10 -53 -2q-117 -36 -185 -34q-16 0 -18 -5q-4 -6 3 -14q7 -12 23 -21q16 -12 58 -1q135 37 138 30q-6 -31 -138 -186q-3 -1 -4 -4 q-22 -25 -52 -49q-21 -12 -10 -48q1 -10 30 -3q13 4 32 9q0 -94 -131 -236q-6 -4 -6 -10q0 -4 5 -4q69 13 172 171q13 22 23 34q6 10 -1 22q-13 22 -26 31q46 13 113 24q7 -7 4 -50q-30 -126 -118 -236q-37 -46 -116 -132q-7 -6 3 -7q49 9 148 120q63 76 146 242q7 16 13 23 q7 6 4 15q-1 9 -15 19q-13 10 -29 13q64 12 102 12q19 -1 23 -11q21 -97 -52 -295q-3 -1 -3 -6q-13 -43 -49 -84z"></path>
    </g>
    </g>
</svg>
