<svg viewBox="0 0 1000 1000" xmlns="http://www.w3.org/2000/svg" char="沉" portion="right" component="冗">
    <g transform="translate(0,900)">
    <g transform="scale(1,-1)">
        <path d="M434 596q22 -10 75 6q124 45 212 53q9 1 14 1q18 -6 15 -16q0 -3 -37 -90q-9 -15 -2 -18q9 -3 25 10q55 46 104 64q39 15 37 26q-4 10 -75 58q-28 22 -120 -6 q-24 0 -240 -57q0 7 -3 15q-13 24 -27 32q-19 13 -20 -13q7 -42 -48 -117q-18 -27 13 -78q21 -22 34 4q6 12 43 126zM507 406q31 6 88 21q13 3 19 -3q9 -10 -7 -137q-42 -342 238 -323q60 4 123 34q31 16 15 48q-28 48 -42 128q-4 22 -11 26q-10 4 -12 -12q-7 -42 -13 -80 q-6 -40 -23 -57q-18 -12 -61 -16q-58 -3 -95 13q-37 13 -56 45q-46 84 -2 257q19 58 51 83q28 24 -4 37q-16 9 -54 20q-25 10 -49 -6q-31 -24 -125 -53q-36 22 -61 12q-12 -4 -5 -18q36 -55 11 -192q-27 -111 -143 -215q-10 -10 1 -11q54 6 116 77q28 31 58 97 q24 103 26 105q-6 18 6 77q1 34 11 43z"></path>
    </g>
    </g>
</svg>
