<svg viewBox="0 0 300.5 1000" xmlns="http://www.w3.org/2000/svg" char="沉" portion="left" component="氵">
    <g transform="translate(0,900)">
    <g transform="scale(1,-1)">
        <path d="M215 681q22 -27 44 -58q13 -18 32 -19q13 -1 21 13q9 16 3 53q-3 21 -33 40q-72 39 -90 33q-7 -3 -7 -19q3 -13 30 -43zM109 481q31 -51 64 -69q16 -4 29 9q9 15 8 34q-4 28 -24 46q-21 16 -73 29q-9 1 -15 -1q-7 -1 -6 -15q1 -13 17 -33zM110 126q-13 -4 -12 -23 q18 -85 53 -105q7 -7 19 -5q7 1 10 29q7 55 124 335q7 18 7 24q0 12 -11 4q-13 -7 -144 -213q-15 -22 -46 -46z"></path>
    </g>
    </g>
</svg>
