    
<svg width="348.5" height="1000">
    <g transform="translate(0,900)">
    <g transform="scale(1,-1)">
        <path char="洋" portion="left" d="M274 739q21 -19 43 -44q15 -15 33 -14q13 0 18 16q6 16 -4 51q-6 18 -34 30q-70 27 -86 17q-6 -4 -4 -19q4 -13 34 -37zM167 564q34 -46 72 -66q16 -4 27 11q7 13 5 33q-7 27 -26 42q-6 3 -65 24q-18 6 -26 1q-7 -1 -5 -15q1 -13 18 -30zM156 238q-13 -3 -11 -21 q13 -78 47 -99q7 -7 18 -5q7 1 10 28q7 51 124 314q7 16 7 23q-1 10 -10 4q-15 -9 -140 -200q-15 -22 -45 -44z"></path>
    </g>
    </g>
</svg>
