    
<svg width="1000" height="1000">
    <g transform="translate(0,900)">
    <g transform="scale(1,-1)">
        <path char="洋" portion="whole" d="M274 739q21 -19 43 -44q15 -15 33 -14q13 0 18 16q6 16 -4 51q-6 18 -34 30q-70 27 -86 17q-6 -4 -4 -19q4 -13 34 -37zM167 564q34 -46 72 -66q16 -4 27 11q7 13 5 33q-7 27 -26 42q-6 3 -65 24q-18 6 -26 1q-7 -1 -5 -15q1 -13 18 -30zM156 238q-13 -3 -11 -21 q13 -78 47 -99q7 -7 18 -5q7 1 10 28q7 51 124 314q7 16 7 23q-1 10 -10 4q-15 -9 -140 -200q-15 -22 -45 -44zM479 761q27 -55 54 -76q13 -6 26 5q10 10 11 28q-1 25 -16 42q-30 33 -70 43q-6 1 -9 1q-7 0 -7 -13q-1 -12 11 -30zM729 798q-3 -6 -86 -118q-10 -19 8 -15 q40 24 126 84q22 18 48 30q24 12 11 31q-15 19 -44 35q-28 15 -42 12q-15 -1 -9 -17q4 -21 -12 -42zM572 287q-7 -339 13 -368q6 -7 14 -5q18 9 24 74q3 39 8 305q66 6 294 7q21 0 25 8q6 12 -10 26q-54 39 -90 32q-81 -16 -218 -35q0 46 3 100q34 9 129 19q9 -1 17 10 q1 10 -19 20q-33 21 -120 -8q-3 0 -5 -1q6 45 10 58q4 19 -12 30q-9 6 -16 10q184 34 191 40q9 7 5 15q-7 12 -35 20q-22 6 -159 -30q-126 -19 -163 -23q-36 -4 -11 -21q39 -27 96 -13h9q21 -36 22 -99q-22 -3 -122 -16q-25 -4 -6 -19q30 -21 68 -14q25 6 60 11 q0 -43 -1 -96q-109 -13 -232 -26q-22 -1 -6 -19q13 -13 32 -20q21 -6 37 -1q79 19 168 29z"></path>
    </g>
    </g>
</svg>
