<svg viewBox="0 0 334.5 1000" xmlns="http://www.w3.org/2000/svg" char="清" portion="left" component="氵">
    <g transform="translate(0,900)">
    <g transform="scale(1,-1)">
        <path d="M221 694q31 -25 66 -57q16 -15 35 -13q13 1 18 16q6 19 -6 53q-7 22 -44 38q-84 28 -102 21q-6 -6 -4 -21q4 -13 37 -37zM140 496q49 -60 83 -74q16 -4 27 11q7 13 5 33q-13 48 -100 73q-19 6 -29 2q-7 -1 -5 -15q1 -13 19 -30zM147 158q-13 -4 -12 -23q12 -84 51 -105 q7 -9 19 -6q9 1 11 30q7 51 116 311q7 18 7 24q0 12 -11 4q-16 -9 -138 -194q-13 -21 -43 -41z"></path>
    </g>
    </g>
</svg>
