    
<svg viewBox="0 0 1000 1000" xmlns="http://www.w3.org/2000/svg">
    <g transform="translate(0,900)">
    <g transform="scale(1,-1)">
        <path char="清" portion="whole" d="M221 694q31 -25 66 -57q16 -15 35 -13q13 1 18 16q6 19 -6 53q-7 22 -44 38q-84 28 -102 21q-6 -6 -4 -21q4 -13 37 -37zM140 496q49 -60 83 -74q16 -4 27 11q7 13 5 33q-13 48 -100 73q-19 6 -29 2q-7 -1 -5 -15q1 -13 19 -30zM147 158q-13 -4 -12 -23q12 -84 51 -105 q7 -9 19 -6q9 1 11 30q7 51 116 311q7 18 7 24q0 12 -11 4q-16 -9 -138 -194q-13 -21 -43 -41zM586 506q-115 -16 -246 -36q-21 -1 -5 -19q31 -28 70 -19q211 63 539 63h3q19 1 25 9q4 12 -12 26q-54 37 -90 29q-88 -21 -238 -46q-1 0 -2 -1q3 40 5 77q121 27 124 29 q7 7 4 15q-7 10 -33 18q-25 6 -92 -17q1 34 4 66q139 31 145 35q9 7 4 17q-7 12 -37 19q-24 6 -110 -21q0 3 1 4q3 24 16 79q3 10 -18 26q-37 19 -62 24q-16 3 -25 -6q-7 -7 1 -23q22 -31 22 -51q1 -33 4 -69q-55 -10 -113 -16q-37 -6 -11 -24q39 -21 112 -8q6 1 14 2 q1 -33 1 -68q-48 -9 -102 -14q-33 -6 -9 -21q36 -24 109 -6h2v-73zM511 146h7q76 9 132 14q22 3 15 16q-10 15 -36 20q-31 6 -117 -22q1 43 6 74h6q70 10 123 17q22 4 14 16q-10 13 -34 18q-25 3 -107 -24q3 60 8 83q10 1 26 7q124 28 145 21q12 -6 13 -32q15 -172 6 -306 q-1 -28 -17 -33q-10 -3 -63 10q-13 4 -12 -4q1 -9 16 -19q34 -31 60 -63q15 -16 31 -16q16 4 37 52q25 49 20 98q-9 118 -18 227q-4 43 13 78q13 16 -2 30q-19 16 -58 29q-21 9 -78 -17q-3 0 -127 -34q-22 22 -53 20q-13 -4 -8 -15q39 -87 -4 -276q-21 -58 -21 -60 q-6 -25 18 -57q6 -13 16 -8q42 27 42 150q0 4 1 6z"></path>
    </g>
    </g>
</svg>
