<svg viewBox="0 0 1000 1000" xmlns="http://www.w3.org/2000/svg" char="烊" portion="right" component="羊">
    <g transform="translate(0,900)">
    <g transform="scale(1,-1)">
        <path d="M458 709 q19 -22 39 -48q13 -16 30 -17q10 0 18 13q7 15 1 47q-7 28 -87 56q-16 4 -23 3q-6 -4 -5 -17q1 -12 27 -37zM695 780q-18 -36 -90 -140q-9 -19 10 -14q18 13 131 111q19 19 43 33q22 13 9 31q-16 18 -46 30q-28 13 -41 8q-13 -3 -8 -17q6 -19 -8 -42zM616 278q90 15 276 15 q19 0 24 9q4 10 -12 24q-51 36 -87 28q-72 -16 -198 -37q-1 0 -3 -1q1 43 2 95q34 9 126 19q10 -1 17 10q1 10 -19 20q-27 21 -113 -7q-4 0 -9 -2q1 9 2 15q4 22 7 40q4 18 -11 27q-6 4 -11 6q169 39 176 43q7 7 4 15q-7 10 -33 18q-28 4 -55 -6q-54 -19 -111 -33 q-64 -15 -140 -22q-33 -6 -9 -21q36 -19 104 -7q18 -27 19 -88q-24 -3 -114 -16q-25 -4 -6 -19q30 -21 67 -13q24 6 53 10v-92q-88 -12 -186 -26q-21 -3 -5 -19q13 -13 31 -18q21 -4 36 0q58 16 124 26q-9 -334 16 -364q6 -7 13 -5q18 12 21 69q9 75 6 149q-3 42 -2 158z"></path>
    </g>
    </g>
</svg>
