    
<svg viewBox="0 0 389.0 1000" xmlns="http://www.w3.org/2000/svg">
    <g transform="translate(0,900)">
    <g transform="scale(1,-1)">
        <path char="烊" portion="left" d="M111 553q-6 -66 -23 -129q-9 -36 15 -60q10 -13 26 3q16 21 20 52q9 51 0 90q-4 31 -17 50q-7 7 -12 6q-7 -4 -9 -12zM247 270q4 -9 20 -24q25 -25 51 -55q10 -12 24 -13q10 0 15 11q6 12 0 38q-7 33 -90 61q-10 4 -15 3q18 85 20 233q54 30 93 54q16 12 37 19 q19 7 10 23q-10 15 -31 28q-19 13 -30 11q-10 -1 -7 -12q1 -24 -42 -69q-13 -13 -29 -30q3 133 21 175q7 16 -6 27q-24 18 -65 28q-27 6 -35 -2q-10 -7 -1 -20q61 -91 25 -423q-3 -7 -3 -16q-27 -132 -150 -229q-12 -9 -11 -13t13 -3q13 -4 46 13q100 43 140 185z"></path>
    </g>
    </g>
</svg>
