<svg viewBox="0 0 422.0 1000" xmlns="http://www.w3.org/2000/svg" char="狗" portion="left" component="犭">
    <g transform="translate(0,900)">
    <g transform="scale(1,-1)">
        <path d="M309 488q-61 -142 -246 -297q-12 -13 -3 -14q9 -4 21 1q117 52 221 197q0 6 20 28q12 -163 -23 -271q-4 -12 -11 -12q-15 -3 -54 7q-31 12 -36 5q-4 -6 6 -19q39 -37 62 -71q19 -28 29 -28q7 -3 20 12q61 66 58 314q0 85 -17 159q-13 55 -32 94q45 57 101 117q12 12 0 28 q-42 42 -64 42q-12 -1 -12 -16q-1 -60 -51 -127q-57 69 -106 95q-13 10 -19 -1q-6 -15 0 -35q6 -22 24 -27q33 -15 67 -73q-37 -43 -82 -76q-40 -27 -59 -44q-10 -13 5 -12q51 3 157 91q15 -34 24 -67z"></path>
    </g>
    </g>
</svg>
