    
<svg width="1000" height="1000">
    <g transform="translate(0,900)">
    <g transform="scale(1,-1)">
        <path char="狗" portion="whole" d="M309 488q-61 -142 -246 -297q-12 -13 -3 -14q9 -4 21 1q117 52 221 197q0 6 20 28q12 -163 -23 -271q-4 -12 -11 -12q-15 -3 -54 7q-31 12 -36 5q-4 -6 6 -19q39 -37 62 -71q19 -28 29 -28q7 -3 20 12q61 66 58 314q0 85 -17 159q-13 55 -32 94q45 57 101 117q12 12 0 28 q-42 42 -64 42q-12 -1 -12 -16q-1 -60 -51 -127q-57 69 -106 95q-13 10 -19 -1q-6 -15 0 -35q6 -22 24 -27q33 -15 67 -73q-37 -43 -82 -76q-40 -27 -59 -44q-10 -13 5 -12q51 3 157 91q15 -34 24 -67zM513 529q45 -18 77 -7q27 12 162 42q19 3 28 -6q18 -22 24 -194 q0 -138 -29 -236q-9 -24 -19 -29q-9 -7 -47 -2q-75 15 -80 8q-3 -9 18 -22q49 -40 76 -79q18 -28 35 -23q48 16 83 130q21 79 36 339q3 67 21 89q19 24 -7 42q-87 54 -139 28q-120 -36 -221 -59q4 7 11 14q42 49 87 125q19 36 36 53q10 10 4 25q-4 13 -35 36q-28 18 -49 17 q-19 -3 -10 -25q12 -22 5 -43q-22 -70 -60 -135q-36 -63 -86 -133q-10 -10 -12 -17q-4 -12 11 -9q21 6 80 71zM501 241q7 -1 19 1q34 7 110 13q10 1 10 10q0 6 -16 17q19 69 40 89q22 25 0 39q-19 12 -45 30q-21 10 -63 -13q-36 -12 -91 -23q-10 4 -35 8q-10 3 -14 -2 q-4 -6 3 -20q25 -51 41 -134q3 -25 17 -42q16 -19 21 -5q4 12 3 32zM568 290q-40 -12 -71 -20q-15 82 -17 107q16 4 82 14q21 4 25 -5q6 -4 0 -34q-6 -28 -13 -61q-4 0 -6 -1z"></path>
    </g>
    </g>
</svg>
