    
<svg width="1000" height="1000">
    <g transform="translate(0,900)">
    <g transform="scale(1,-1)">
        <path char="狗" portion="right" d="M513 529q45 -18 77 -7q27 12 162 42q19 3 28 -6q18 -22 24 -194 q0 -138 -29 -236q-9 -24 -19 -29q-9 -7 -47 -2q-75 15 -80 8q-3 -9 18 -22q49 -40 76 -79q18 -28 35 -23q48 16 83 130q21 79 36 339q3 67 21 89q19 24 -7 42q-87 54 -139 28q-120 -36 -221 -59q4 7 11 14q42 49 87 125q19 36 36 53q10 10 4 25q-4 13 -35 36q-28 18 -49 17 q-19 -3 -10 -25q12 -22 5 -43q-22 -70 -60 -135q-36 -63 -86 -133q-10 -10 -12 -17q-4 -12 11 -9q21 6 80 71zM501 241q7 -1 19 1q34 7 110 13q10 1 10 10q0 6 -16 17q19 69 40 89q22 25 0 39q-19 12 -45 30q-21 10 -63 -13q-36 -12 -91 -23q-10 4 -35 8q-10 3 -14 -2 q-4 -6 3 -20q25 -51 41 -134q3 -25 17 -42q16 -19 21 -5q4 12 3 32zM568 290q-40 -12 -71 -20q-15 82 -17 107q16 4 82 14q21 4 25 -5q6 -4 0 -34q-6 -28 -13 -61q-4 0 -6 -1z"></path>
    </g>
    </g>
</svg>
