<svg viewBox="0 0 1000 1000" xmlns="http://www.w3.org/2000/svg" char="狮" portion="right" component="师">
    <g transform="translate(0,900)">
    <g transform="scale(1,-1)">
        <path d="M374 571q30 -73 7 -187q-21 -18 11 -70l4 -4 q9 -10 16 1q16 18 17 127q0 91 3 111q1 13 -12 21q-18 13 -38 19q-7 1 -12 -6q-1 -4 4 -12zM473 666q33 -39 20 -251q-1 -3 -1 -9q-7 -70 -23 -130q-28 -100 -93 -220q-4 -6 -5 -12q-1 -10 7 -7q36 12 104 151l12 30q51 148 51 365q0 24 5 51q7 13 -1 24q-16 13 -44 24 q-18 9 -28 3q-10 -7 -4 -19zM707 -12q4 -24 11 -33q6 -7 13 -5q13 9 20 65q7 84 6 167q-4 67 -2 315q31 7 64 11q25 0 26 -17q12 -142 -4 -161q-9 -6 -63 8q-15 4 -17 -1q-3 -4 7 -14q52 -37 84 -68q13 -12 26 2q28 42 22 119q-6 69 1 123q3 19 -6 26q-25 21 -41 30 q-12 4 -20 -4q-4 -7 -79 -27q0 1 1 2q0 45 11 92q3 16 -11 25q-4 4 -9 6q153 45 158 50q9 9 3 17q-7 12 -38 17q-24 3 -123 -34q-121 -30 -132 -32q-37 -9 -9 -24q30 -15 82 -10q19 -30 20 -118q-34 -6 -86 -15q-27 12 -41 12q-10 -4 -6 -13q33 -66 4 -175q-18 -33 9 -72 l2 -2q7 -10 15 -5q24 21 25 89q1 112 4 137q6 0 14 2q30 9 60 15q0 -127 -4 -306q-3 -145 3 -194z"></path>
    </g>
    </g>
</svg>
