    
<svg viewBox="0 0 387.5 1000" xmlns="http://www.w3.org/2000/svg">
    <g transform="translate(0,900)">
    <g transform="scale(1,-1)">
        <path char="狮" portion="left" d="M277 506q-55 -135 -222 -328q-7 -10 5 -12q19 -3 130 111q52 55 100 144q19 -106 -18 -256q-4 -15 -10 -32q-4 -15 -13 -15q-18 -1 -65 16q-30 12 -34 6t5 -19q45 -40 73 -76q18 -28 29 -28q7 -3 23 14q84 112 50 447q-6 37 -14 68q-10 34 -23 59q18 22 34 45 q40 55 75 100q10 12 -1 27q-39 34 -62 35q-12 -1 -10 -16q0 -73 -60 -153q-39 51 -103 82q-13 9 -18 -3q-4 -13 2 -33q7 -19 26 -24q31 -13 62 -61q-36 -43 -79 -78q-40 -31 -61 -51q-9 -13 6 -10q49 3 153 102q7 -15 20 -61z"></path>
    </g>
    </g>
</svg>
