    
<svg width="1000" height="1000">
    <g transform="translate(0,900)">
    <g transform="scale(1,-1)">
        <path char="狮" portion="whole" d="M277 506q-55 -135 -222 -328q-7 -10 5 -12q19 -3 130 111q52 55 100 144q19 -106 -18 -256q-4 -15 -10 -32q-4 -15 -13 -15q-18 -1 -65 16q-30 12 -34 6t5 -19q45 -40 73 -76q18 -28 29 -28q7 -3 23 14q84 112 50 447q-6 37 -14 68q-10 34 -23 59q18 22 34 45 q40 55 75 100q10 12 -1 27q-39 34 -62 35q-12 -1 -10 -16q0 -73 -60 -153q-39 51 -103 82q-13 9 -18 -3q-4 -13 2 -33q7 -19 26 -24q31 -13 62 -61q-36 -43 -79 -78q-40 -31 -61 -51q-9 -13 6 -10q49 3 153 102q7 -15 20 -61zM374 571q30 -73 7 -187q-21 -18 11 -70l4 -4 q9 -10 16 1q16 18 17 127q0 91 3 111q1 13 -12 21q-18 13 -38 19q-7 1 -12 -6q-1 -4 4 -12zM473 666q33 -39 20 -251q-1 -3 -1 -9q-7 -70 -23 -130q-28 -100 -93 -220q-4 -6 -5 -12q-1 -10 7 -7q36 12 104 151l12 30q51 148 51 365q0 24 5 51q7 13 -1 24q-16 13 -44 24 q-18 9 -28 3q-10 -7 -4 -19zM707 -12q4 -24 11 -33q6 -7 13 -5q13 9 20 65q7 84 6 167q-4 67 -2 315q31 7 64 11q25 0 26 -17q12 -142 -4 -161q-9 -6 -63 8q-15 4 -17 -1q-3 -4 7 -14q52 -37 84 -68q13 -12 26 2q28 42 22 119q-6 69 1 123q3 19 -6 26q-25 21 -41 30 q-12 4 -20 -4q-4 -7 -79 -27q0 1 1 2q0 45 11 92q3 16 -11 25q-4 4 -9 6q153 45 158 50q9 9 3 17q-7 12 -38 17q-24 3 -123 -34q-121 -30 -132 -32q-37 -9 -9 -24q30 -15 82 -10q19 -30 20 -118q-34 -6 -86 -15q-27 12 -41 12q-10 -4 -6 -13q33 -66 4 -175q-18 -33 9 -72 l2 -2q7 -10 15 -5q24 21 25 89q1 112 4 137q6 0 14 2q30 9 60 15q0 -127 -4 -306q-3 -145 3 -194z"></path>
    </g>
    </g>
</svg>
