    
<svg width="1000" height="1000">
    <g transform="translate(0,900)">
    <g transform="scale(1,-1)">
        <path char="猫" portion="right" d="M755 590q57 12 157 6 q15 -1 20 9q4 10 -9 25q-46 39 -142 14q-6 0 -11 -2q6 37 35 103q13 18 1 28q-15 16 -54 32q-19 9 -38 -2q-10 -7 -1 -20q15 -30 13 -67q-4 -37 -13 -86q-66 -10 -140 -24q-1 25 -1 48q3 19 -17 27q-40 21 -61 15q-18 -7 -4 -28q22 -33 33 -70q-58 -7 -121 -16 q-28 -4 -8 -19q42 -24 100 -13q16 6 36 9q6 -37 9 -71q4 -22 17 -36q13 -12 18 0q7 19 4 42q-1 40 -4 75q22 7 131 17q-24 -99 -20 -122q3 -16 19 -2q18 18 51 128zM515 82h16q124 15 218 22q10 -25 35 -75q9 -18 19 -17q16 3 25 29q31 61 47 250q4 49 28 79q16 21 5 34 q-22 22 -70 42q-19 10 -51 -2q-126 -45 -326 -66q-19 12 -39 18q-7 3 -12 -3q-9 -6 1 -17q39 -72 44 -235q3 -69 40 -93l1 -1q16 -6 19 26v9zM748 142q-36 7 -88 -8q1 52 5 98q37 7 72 10q25 4 16 18q-10 16 -38 20q-19 4 -48 -3q6 78 -6 84q-7 7 -13 11q54 13 118 23 q28 6 41 -8q25 -46 -12 -243q-1 -18 -9 -20q-1 -1 -9 0q-9 13 -29 18zM513 111q-1 16 -6 34q-12 144 -14 196q15 6 114 23q7 -28 11 -94q-1 -1 0 -6q-45 -12 -82 -22q-18 -4 4 -20q9 -7 29 -4q25 4 50 7q0 -40 1 -98q-57 -7 -107 -16z"></path>
    </g>
    </g>
</svg>
