    
<svg width="1000" height="1000">
    <g transform="translate(0,900)">
    <g transform="scale(1,-1)">
        <path char="猫" portion="left" d="M322 409q22 -129 -24 -288q-3 -3 -3 -8q-7 -16 -16 -18q-16 -1 -57 12q-31 12 -36 5q-4 -6 6 -19q40 -39 66 -74q19 -30 30 -29q9 -1 26 17q79 82 61 356q-1 7 -1 13q-12 145 -60 220q13 18 25 35q37 52 70 95q12 13 -2 29q-43 39 -70 37q-12 -1 -10 -17q1 -63 -46 -140 q-54 48 -113 69q-15 7 -18 -5q-3 -15 6 -35q10 -19 30 -21q33 -12 65 -49q-33 -45 -73 -80q-37 -31 -56 -49q-10 -16 7 -12q54 3 150 103q18 -30 27 -67q-36 -73 -82 -138q-49 -66 -160 -184q-7 -10 5 -12q22 -4 138 106q58 55 114 146q0 1 1 2z"></path>
    </g>
    </g>
</svg>
