    
<svg width="1000" height="1000">
    <g transform="translate(0,900)">
    <g transform="scale(1,-1)">
        <path char="猴" portion="whole" d="M270 472q-66 -108 -213 -250q-7 -9 4 -12q18 -3 125 84q46 40 92 102q3 -171 -23 -264q-6 -16 -14 -17q-15 -4 -58 0q-30 7 -34 1q-3 -6 8 -17q42 -30 70 -59q16 -22 25 -21q7 -3 24 16q87 118 35 479q-7 37 -16 68l24 30q34 46 67 85q12 10 -1 27q-39 39 -64 37 q-10 -1 -10 -16q0 -54 -36 -111q-36 61 -103 88q-13 7 -17 -5q-3 -13 4 -31q9 -18 26 -21q39 -16 60 -73q-3 -1 -4 -5q-33 -43 -74 -76q-34 -27 -53 -43q-10 -15 6 -11q48 3 138 86q7 -34 12 -71zM399 473q1 -6 6 -12q27 -63 9 -243q-7 -52 -20 -107q-12 -49 23 -90l1 -2 q16 -15 28 10q13 39 13 82q0 258 8 316q7 25 -2 35q-33 39 -42 44q64 99 102 175q16 40 34 61q7 10 2 23q-6 12 -34 30q-27 13 -45 12q-16 -4 -7 -24q12 -21 5 -57q-39 -129 -141 -289q-7 -10 -10 -16q-1 -10 11 -7t59 59zM707 591q-105 -22 -195 -41q-18 -4 3 -20 q19 -13 58 -6q187 37 324 59q25 3 16 17q-10 16 -38 21q-21 3 -109 -17q21 57 48 71q16 18 1 35q-76 55 -123 24q-54 -21 -93 -30q-13 -1 -12 -10q3 -7 19 -11q22 -7 51 4q64 13 68 11q10 -13 -18 -107zM685 249q58 -94 134 -197q27 -30 163 -9q9 1 10 6q1 4 -11 12 q-114 52 -204 133q-42 39 -85 85q1 9 4 16q73 12 193 16q48 0 55 9q4 10 -10 20q-51 33 -109 14q-51 -10 -121 -26q4 16 13 30q9 15 -5 23q-15 12 -27 17q7 4 121 33q27 7 31 11q7 7 3 15q-7 10 -35 16q-28 4 -54 -9q-30 -12 -62 -22q-37 -10 -79 -15q-6 -1 -8 -3 q34 57 35 58q-7 19 -38 26q-16 4 -24 2q-6 -3 -4 -12q9 -13 -7 -54q-12 -34 -56 -91q-6 -4 2 -6q48 16 82 65q15 -15 50 -17q0 -1 2 -5q9 -18 6 -66q-1 -1 -1 -6q-79 -12 -168 -27q-16 -3 -3 -16q27 -24 57 -15q52 16 110 27q-24 -129 -157 -218q-12 -7 -1 -10q43 -4 109 49 q63 52 89 141z"></path>
    </g>
    </g>
</svg>
