<svg viewBox="0 0 1000 1000" xmlns="http://www.w3.org/2000/svg" char="猴" portion="left" component="犭">
    <g transform="translate(0,900)">
    <g transform="scale(1,-1)">
        <path d="M270 472q-66 -108 -213 -250q-7 -9 4 -12q18 -3 125 84q46 40 92 102q3 -171 -23 -264q-6 -16 -14 -17q-15 -4 -58 0q-30 7 -34 1q-3 -6 8 -17q42 -30 70 -59q16 -22 25 -21q7 -3 24 16q87 118 35 479q-7 37 -16 68l24 30q34 46 67 85q12 10 -1 27q-39 39 -64 37 q-10 -1 -10 -16q0 -54 -36 -111q-36 61 -103 88q-13 7 -17 -5q-3 -13 4 -31q9 -18 26 -21q39 -16 60 -73q-3 -1 -4 -5q-33 -43 -74 -76q-34 -27 -53 -43q-10 -15 6 -11q48 3 138 86q7 -34 12 -71z"></path>
    </g>
    </g>
</svg>
