<svg viewBox="0 0 400.5 1000" xmlns="http://www.w3.org/2000/svg" char="玛" portion="left" component="王">
    <g transform="translate(0,900)">
    <g transform="scale(1,-1)">
        <path d="M275 280q-58 -19 -117 -43q-18 -7 -48 -8q-13 -3 -14 -13q-1 -13 9 -22q25 -15 60 -31q12 -3 23 7q36 34 191 117q22 13 38 27q13 9 13 19q-9 6 -110 -35q3 88 6 163q25 9 51 14q31 9 35 14q9 7 4 16q-7 10 -37 16q-27 4 -51 -7 q3 123 4 123l-1 1q-16 16 -32 26q43 12 93 22q31 9 36 13q9 9 4 17q-7 12 -38 18q-30 4 -104 -22q-63 -18 -122 -26q-37 -7 -9 -23q43 -24 100 -8q15 -39 17 -116v-45q-108 -22 -117 -25q-34 -9 -9 -23q48 -21 97 -4q13 4 29 6q-1 -67 -1 -168z"></path>
    </g>
    </g>
</svg>
