    
<svg viewBox="0 0 1000 1000" xmlns="http://www.w3.org/2000/svg">
    <g transform="translate(0,900)">
    <g transform="scale(1,-1)">
        <path char="玛" portion="whole" d="M711 419q19 46 35 206q13 55 48 90q18 19 -1 34q-19 16 -75 38q-15 9 -74 -10q-48 -10 -91 -24q-40 -12 -67 -17q-18 -1 -20 -7q-4 -6 15 -16q36 -16 58 -9q39 15 129 31q16 1 21 -1q18 -7 12 -60q-21 -193 -34 -233q-4 -15 -2 -29q-46 -7 -106 -20q-19 -4 -21 13 q16 150 35 188q7 16 2 28q-15 19 -40 32q-16 9 -27 1q-7 -4 1 -17q12 -39 -20 -217q-4 -19 -11 -39q-7 -21 7 -37q21 -18 43 -4q54 39 248 54q31 1 43 -12q10 -12 -31 -194q-10 -55 -38 -91q-7 -12 -31 -12q-45 19 -85 36q-15 4 -15 -2q-1 -6 8 -14q67 -63 92 -106 q7 -22 27 -12q67 28 84 103q25 97 44 207q9 39 29 70q13 16 2 30q-18 22 -56 45q-21 13 -51 1q-40 -18 -77 -22q-4 0 -10 -2zM573 211q21 1 42 5q48 6 110 2q21 -1 25 7q6 13 -5 22q-28 22 -68 36q-13 4 -34 -5q-3 0 -196 -36q-27 -6 -67 -9q-12 -1 -12 -11t18 -22 q15 -9 43 -17q10 -3 25 6q100 21 119 22zM275 280q-58 -19 -117 -43q-18 -7 -48 -8q-13 -3 -14 -13q-1 -13 9 -22q25 -15 60 -31q12 -3 23 7q36 34 191 117q22 13 38 27q13 9 13 19q-9 6 -110 -35q3 88 6 163q25 9 51 14q31 9 35 14q9 7 4 16q-7 10 -37 16q-27 4 -51 -7 q3 123 4 123l-1 1q-16 16 -32 26q43 12 93 22q31 9 36 13q9 9 4 17q-7 12 -38 18q-30 4 -104 -22q-63 -18 -122 -26q-37 -7 -9 -23q43 -24 100 -8q15 -39 17 -116v-45q-108 -22 -117 -25q-34 -9 -9 -23q48 -21 97 -4q13 4 29 6q-1 -67 -1 -168z"></path>
    </g>
    </g>
</svg>
