    
<svg width="599.5" height="1000">
    <g transform="translate(0,900)">
    <g transform="scale(1,-1)">
        <path char="玛" portion="right" d="M310.5 419q19 46 35 206q13 55 48 90q18 19 -1 34q-19 16 -75 38q-15 9 -74 -10q-48 -10 -91 -24q-40 -12 -67 -17q-18 -1 -20 -7q-4 -6 15 -16q36 -16 58 -9q39 15 129 31q16 1 21 -1q18 -7 12 -60q-21 -193 -34 -233q-4 -15 -2 -29q-46 -7 -106 -20q-19 -4 -21 13 q16 150 35 188q7 16 2 28q-15 19 -40 32q-16 9 -27 1q-7 -4 1 -17q12 -39 -20 -217q-4 -19 -11 -39q-7 -21 7 -37q21 -18 43 -4q54 39 248 54q31 1 43 -12q10 -12 -31 -194q-10 -55 -38 -91q-7 -12 -31 -12q-45 19 -85 36q-15 4 -15 -2q-1 -6 8 -14q67 -63 92 -106 q7 -22 27 -12q67 28 84 103q25 97 44 207q9 39 29 70q13 16 2 30q-18 22 -56 45q-21 13 -51 1q-40 -18 -77 -22q-4 0 -10 -2zM172.5 211q21 1 42 5q48 6 110 2q21 -1 25 7q6 13 -5 22q-28 22 -68 36q-13 4 -34 -5q-3 0 -196 -36q-27 -6 -67 -9q-12 -1 -12 -11t18 -22 q15 -9 43 -17q10 -3 25 6q100 21 119 22z"></path>
    </g>
    </g>
</svg>
