    
<svg width="1000" height="1000">
    <g transform="translate(0,900)">
    <g transform="scale(1,-1)">
        <path char="ç " portion="left" d="M247 218q49 16 149 34q10 3 10 12q0 7 -29 22q15 81 37 107q22 27 -2 40q-19 10 -47 26q-21 12 -60 -17q-7 -3 -71 -26q25 55 58 134q13 39 14 40q-12 24 -47 28q156 48 158 49q9 9 3 17q-7 12 -38 17q-25 3 -114 -31q-73 -21 -113 -27q-37 -9 -9 -24 q33 -15 71 -12q9 -9 8 -48q-9 -63 -30 -115q-4 -12 -10 -25q-3 1 -7 2q-12 4 -15 -1q-7 -6 1 -21q1 -7 5 -15q-43 -81 -138 -205q-7 -6 4 -7q60 21 148 150q0 3 3 5q10 -43 17 -98q1 -31 18 -53q16 -22 22 -7q7 18 4 49zM243 254q-13 103 -15 130q24 9 82 22q22 6 27 -3 q9 -6 2 -43q-6 -34 -13 -77q-46 -16 -83 -29z"></path>
    </g>
    </g>
</svg>
