    
<svg width="1000" height="1000">
    <g transform="translate(0,900)">
    <g transform="scale(1,-1)">
        <path char="ç " portion="whole" d="M711 408q24 36 43 205q12 55 47 90q18 19 0 33q-21 16 -75 39q-18 9 -72 -11q-18 0 -98 -26q-43 -13 -70 -18q-18 -1 -20 -7q-4 -6 15 -16q36 -16 58 -8q40 16 135 34q16 3 24 0q16 -9 11 -57q-21 -184 -34 -221q-9 -27 5 -42q-40 -4 -99 -19q-25 -4 -26 17q9 165 20 192 q7 16 -1 29q-18 19 -45 30q-19 7 -28 -2q-7 -4 2 -17q12 -27 5 -163q0 -54 -13 -99q-6 -22 10 -37q21 -18 42 -2q51 36 209 47q33 1 46 -12t-3 -57q-7 -67 -18 -137q-7 -54 -31 -89q-9 -13 -35 -13q-37 9 -69 15q-16 4 -15 -3q0 -6 9 -14q61 -52 85 -88q10 -21 28 -10 q64 34 76 108q19 97 31 203q7 39 27 72q13 16 1 30q-18 22 -57 44q-22 13 -52 -1q-33 -13 -65 -18q-1 0 -3 -1zM567 196q106 21 178 17q19 0 24 8q6 12 -6 20q-27 19 -65 32q-12 4 -32 -5q-235 -57 -310 -65q-12 -1 -11 -11q0 -10 17 -20q15 -9 42 -16q9 -1 23 6 q24 15 140 34zM247 218q49 16 149 34q10 3 10 12q0 7 -29 22q15 81 37 107q22 27 -2 40q-19 10 -47 26q-21 12 -60 -17q-7 -3 -71 -26q25 55 58 134q13 39 14 40q-12 24 -47 28q156 48 158 49q9 9 3 17q-7 12 -38 17q-25 3 -114 -31q-73 -21 -113 -27q-37 -9 -9 -24 q33 -15 71 -12q9 -9 8 -48q-9 -63 -30 -115q-4 -12 -10 -25q-3 1 -7 2q-12 4 -15 -1q-7 -6 1 -21q1 -7 5 -15q-43 -81 -138 -205q-7 -6 4 -7q60 21 148 150q0 3 3 5q10 -43 17 -98q1 -31 18 -53q16 -22 22 -7q7 18 4 49zM243 254q-13 103 -15 130q24 9 82 22q22 6 27 -3 q9 -6 2 -43q-6 -34 -13 -77q-46 -16 -83 -29z"></path>
    </g>
    </g>
</svg>
