    
<svg width="395.0" height="1000">
    <g transform="translate(0,900)">
    <g transform="scale(1,-1)">
        <path char="请" portion="left" d="M278 750q34 -27 69 -60q15 -13 32 -13q12 1 17 15q6 16 -5 49q-12 39 -119 62q-16 4 -24 0q-6 -4 -4 -18q4 -13 34 -35zM125 479q-52 -16 -79 -18q-16 0 -18 -8q-4 -7 8 -16q22 -15 39 -17q15 -3 117 41q55 28 66 20q10 -7 5 -34q-7 -177 -41 -285q-19 -31 25 -85 q10 -13 21 -6q9 7 21 31q40 49 123 133q13 12 10 19q-1 9 -13 -1q-40 -24 -78 -50q-49 -39 -39 20q0 63 26 216q4 25 27 48q13 10 3 24q-10 16 -50 34q-12 7 -30 -4q-91 -46 -143 -62z"></path>
    </g>
    </g>
</svg>
