    
<svg width="1000" height="1000">
    <g transform="translate(0,900)">
    <g transform="scale(1,-1)">
        <path char="请" portion="whole" d="M278 750q34 -27 69 -60q15 -13 32 -13q12 1 17 15q6 16 -5 49q-12 39 -119 62q-16 4 -24 0q-6 -4 -4 -18q4 -13 34 -35zM125 479q-52 -16 -79 -18q-16 0 -18 -8q-4 -7 8 -16q22 -15 39 -17q15 -3 117 41q55 28 66 20q10 -7 5 -34q-7 -177 -41 -285q-19 -31 25 -85 q10 -13 21 -6q9 7 21 31q40 49 123 133q13 12 10 19q-1 9 -13 -1q-40 -24 -78 -50q-49 -39 -39 20q0 63 26 216q4 25 27 48q13 10 3 24q-10 16 -50 34q-12 7 -30 -4q-91 -46 -143 -62zM605 487q-106 -18 -226 -38q-19 -3 -5 -18q13 -12 31 -17q19 -4 34 1q211 66 472 66 q4 1 11 1q18 1 22 9q4 12 -11 24q-49 33 -84 24q-76 -19 -204 -45q1 34 4 68q111 28 115 31q7 7 3 14q-7 9 -30 14q-27 4 -86 -20q1 36 4 70q144 36 148 39q9 7 4 15q-7 10 -33 17q-28 4 -55 -6q-31 -10 -62 -21q0 3 1 4q6 40 15 75q3 10 -16 24q-34 18 -56 21q-16 3 -23 -5 q-7 -7 1 -21q21 -28 21 -49q1 -31 3 -65q-49 -10 -107 -17q-34 -6 -9 -21q33 -18 102 -5q6 1 16 3v-71q-46 -10 -99 -18q-30 -6 -8 -18q28 -15 91 -3q6 1 16 2v-64zM545 147q4 -1 14 0q81 13 139 21q24 4 15 16q-10 15 -36 19q-31 3 -130 -29q3 43 7 74q4 -1 14 0 q72 13 124 21q22 4 13 16q-10 13 -34 17q-40 3 -115 -30q4 52 8 70v9q13 1 31 6q105 25 122 18q12 -4 13 -30q16 -157 11 -282q-1 -25 -16 -30q-10 -3 -68 12q-12 3 -11 -5q1 -7 16 -17q36 -31 64 -62q15 -16 31 -15q15 4 34 48q22 46 17 92q-10 109 -20 211q-4 40 12 72 q10 16 -3 29q-18 15 -56 27q-21 9 -38 -3q-15 -7 -44 -18q-72 -19 -106 -28q-1 3 -5 4q-28 15 -45 15q-13 -4 -8 -16q42 -94 -9 -274q-33 -69 -2 -111q6 -13 16 -8q33 21 43 131q1 16 2 30z"></path>
    </g>
    </g>
</svg>
